<?xml version="1.0" standalone="no"?>
<!DOCTYPE svg PUBLIC "-//W3C//DTD SVG 20010904//EN"
 "http://www.w3.org/TR/2001/REC-SVG-20010904/DTD/svg10.dtd">
<svg version="1.0" xmlns="http://www.w3.org/2000/svg"
 width="700.000000pt" height="700.000000pt" viewBox="0 0 700.000000 700.000000"
 preserveAspectRatio="xMidYMid meet">
<metadata>
Created by potrace 1.11, written by Peter Selinger 2001-2013
</metadata>
<g transform="translate(0.000000,700.000000) scale(0.100000,-0.100000)"
fill="#000000" stroke="none">
<path d="M3155 6919 c-476 -47 -901 -178 -1306 -400 -625 -342 -1151 -891
-1450 -1514 -157 -327 -262 -657 -305 -950 -38 -268 -38 -861 1 -1118 35 -229
100 -463 202 -722 248 -627 678 -1165 1238 -1547 701 -478 1572 -685 2410
-573 402 53 769 171 1140 364 312 162 558 343 811 597 537 539 876 1183 973
1849 42 283 51 791 20 1074 -34 314 -155 703 -329 1056 -281 571 -706 1039
-1250 1376 -421 262 -875 423 -1390 495 -136 18 -627 27 -765 13z m1266 -1735
c74 -22 141 -89 163 -163 20 -68 20 -84 0 -152 -12 -39 -29 -67 -63 -100 -80
-81 -64 -79 -768 -79 l-613 0 0 -545 0 -544 578 -3 577 -3 47 -23 c185 -91
185 -353 0 -444 l-47 -23 -577 -3 -577 -3 -3 -632 -3 -632 -30 -54 c-37 -67
-91 -113 -156 -134 -108 -35 -205 -12 -284 67 -93 93 -86 -63 -83 1721 l3
1570 31 55 c32 58 99 112 158 129 17 5 376 10 812 10 690 1 787 -1 835 -15z"/>
<path d="M2814 5053 c-12 -2 -31 -14 -43 -27 l-21 -23 0 -1579 0 -1579 25 -23
c36 -31 130 -32 169 -1 l26 20 0 705 0 704 663 0 c364 0 667 4 673 8 45 30 45
154 0 184 -6 4 -309 8 -673 8 l-663 0 0 685 0 685 718 0 719 0 23 25 c30 32
38 107 17 157 -12 29 -23 39 -54 47 -36 10 -1528 14 -1579 4z"/>
</g>
</svg>
