<?xml version="1.0" encoding="UTF-8" standalone="no"?>
<!DOCTYPE svg PUBLIC "-//W3C//DTD SVG 1.1//EN" "http://www.w3.org/Graphics/SVG/1.1/DTD/svg11.dtd">
<svg version="1.1" xmlns="http://www.w3.org/2000/svg" xmlns:xlink="http://www.w3.org/1999/xlink" preserveAspectRatio="xMidYMid meet" viewBox="0 0 1000 1000" width="1000" height="1000"><defs><path d="M524.83 10.73L542.39 12.03L559.81 13.94L577.09 16.45L594.2 19.55L611.13 23.23L627.88 27.48L644.42 32.3L660.75 37.68L676.84 43.6L692.69 50.06L708.28 57.05L723.6 64.57L738.63 72.6L753.36 81.14L767.77 90.18L781.86 99.7L795.61 109.71L809 120.19L822.03 131.14L834.66 142.54L846.91 154.4L858.74 166.69L870.15 179.41L881.12 192.56L891.64 206.12L901.69 220.09L911.26 234.46L920.34 249.22L928.91 264.36L936.96 279.87L944.48 295.75L951.44 311.99L957.85 328.57L963.68 345.5L965.1 349.9L966.47 354.19L967.78 358.38L969.03 362.46L970.23 366.46L971.38 370.36L972.47 374.19L973.51 377.96L974.51 381.65L975.45 385.3L976.35 388.89L977.19 392.45L978 395.97L978.75 399.46L979.47 402.94L980.14 406.4L980.77 409.87L981.36 413.33L981.91 416.8L982.42 420.3L982.9 423.81L983.33 427.36L983.74 430.95L984.11 434.59L984.44 438.28L984.75 442.03L985.02 445.85L985.27 449.75L985.48 453.73L985.67 457.8L985.83 461.97L985.97 466.25L986.08 470.64L986.17 475.15L986.24 479.78L986.29 484.55L986.31 489.46L986.32 494.53L986.31 499.75L986.29 505.13L986.23 510.85L986.15 516.48L986.03 522L985.87 527.43L985.68 532.77L985.45 538.02L985.18 543.19L984.88 548.29L984.53 553.31L984.14 558.26L983.7 563.15L983.23 567.98L982.71 572.75L982.14 577.47L981.53 582.15L980.87 586.78L980.17 591.37L979.41 595.93L978.61 600.45L977.75 604.95L976.84 609.43L975.88 613.9L974.87 618.34L973.8 622.78L972.67 627.22L971.49 631.66L970.25 636.1L968.95 640.54L967.59 645L966.17 649.48L964.69 653.98L963.15 658.51L961.55 663.06L959.88 667.65L958.14 672.27L956.34 676.94L954.47 681.66L952.53 686.43L950.53 691.25L948.45 696.13L945.79 702.19L942.99 708.26L940.07 714.34L937.01 720.42L933.83 726.5L930.53 732.58L927.11 738.65L923.57 744.7L919.93 750.75L916.17 756.77L912.3 762.77L908.33 768.74L904.26 774.69L900.09 780.6L895.83 786.47L891.47 792.31L887.03 798.09L882.5 803.84L877.89 809.53L873.2 815.16L868.43 820.74L863.58 826.25L858.67 831.7L853.68 837.07L848.64 842.38L843.53 847.6L838.36 852.75L833.13 857.81L827.85 862.79L822.53 867.67L817.15 872.46L811.73 877.14L806.27 881.73L800.77 886.21L795.24 890.58L789.67 894.84L784.07 898.98L778.45 903L772.81 906.89L767.14 910.66L746.97 923.12L726.48 934.48L705.69 944.77L684.66 953.97L663.4 962.12L641.95 969.22L620.34 975.28L598.61 980.31L576.79 984.32L554.91 987.32L533.01 989.34L511.11 990.36L489.26 990.42L467.48 989.51L445.81 987.65L424.28 984.85L402.92 981.12L381.77 976.47L360.85 970.92L340.21 964.47L319.88 957.13L299.88 948.92L280.26 939.85L261.04 929.93L242.25 919.16L223.94 907.57L206.13 895.15L188.86 881.93L172.15 867.92L156.05 853.11L140.59 837.54L125.79 821.19L111.69 804.1L98.33 786.26L85.74 767.7L73.94 748.41L62.98 728.42L52.89 707.73L43.69 686.35L35.43 664.3L33.9 659.84L32.43 655.47L31.01 651.17L29.65 646.95L28.34 642.79L27.08 638.7L25.88 634.65L24.73 630.66L23.62 626.71L22.57 622.8L21.56 618.93L20.61 615.08L19.69 611.25L18.83 607.44L18.01 603.63L17.23 599.84L16.5 596.04L15.81 592.24L15.16 588.43L14.55 584.6L13.98 580.74L13.45 576.86L12.96 572.95L12.51 568.99L12.09 565L11.71 560.95L11.36 556.84L11.05 552.68L10.77 548.45L10.52 544.14L10.3 539.76L10.11 535.29L9.95 530.74L9.82 526.09L9.72 521.34L9.64 516.49L9.59 511.52L9.57 506.44L9.57 501.23L9.59 495.9L9.64 490.5L9.71 485.24L9.8 480.11L9.91 475.1L10.05 470.21L10.22 465.43L10.41 460.75L10.64 456.17L10.89 451.68L11.18 447.28L11.5 442.95L11.85 438.7L12.24 434.52L12.67 430.4L13.13 426.33L13.63 422.31L14.17 418.32L14.76 414.38L15.38 410.46L16.05 406.57L16.77 402.69L17.53 398.83L18.34 394.96L19.19 391.1L20.1 387.23L21.06 383.34L22.07 379.43L23.13 375.49L24.25 371.52L25.42 367.51L26.65 363.45L27.94 359.34L29.29 355.17L30.7 350.94L32.17 346.63L33.71 342.25L35.31 337.78L36.97 333.22L38.7 328.57L40.5 323.81L45.17 311.92L50.16 300.16L55.46 288.57L61.09 277.13L67.01 265.86L73.24 254.76L79.76 243.83L86.57 233.08L93.66 222.52L101.02 212.15L108.65 201.98L116.54 192.01L124.69 182.24L133.09 172.69L141.72 163.35L150.59 154.24L159.7 145.36L169.02 136.71L178.56 128.29L188.31 120.13L198.26 112.21L208.41 104.54L218.76 97.14L229.28 90L239.98 83.13L250.86 76.53L261.89 70.22L273.09 64.19L284.44 58.45L295.93 53.01L307.56 47.87L319.33 43.04L331.22 38.53L343.23 34.33L355.35 30.45L367.58 26.9L379.91 23.68L392.33 20.81L404.84 18.27L417.43 16.09L435.51 13.58L453.53 11.73L471.49 10.53L489.37 9.97L507.15 10.03L524.83 10.73ZM496.6 180.41L495.65 180.56L494.7 180.76L493.74 181.03L492.77 181.36L491.78 181.75L490.79 182.21L489.8 182.72L488.79 183.3L487.77 183.94L486.75 184.64L485.71 185.41L485.38 185.72L485 186.17L484.57 186.74L484.09 187.45L483.58 188.29L483.02 189.25L482.42 190.33L481.78 191.52L481.1 192.84L480.39 194.26L479.64 195.79L478.85 197.43L478.03 199.17L477.18 201.02L476.3 202.96L475.39 204.99L474.45 207.12L473.48 209.33L472.49 211.63L471.47 214.01L470.43 216.47L469.37 219.01L468.28 221.62L467.18 224.31L466.06 227.06L464.92 229.87L463.76 232.75L462.59 235.68L461.41 238.68L460.22 241.72L459.01 244.82L457.8 247.96L456.57 251.15L455.34 254.38L454.11 257.64L452.87 260.94L451.62 264.28L450.38 267.64L449.13 271.03L447.88 274.45L446.62 278.01L445.26 281.84L443.8 285.93L442.24 290.26L440.6 294.84L438.86 299.64L437.05 304.67L435.15 309.92L433.17 315.37L431.12 321.02L429 326.85L426.81 332.87L424.55 339.06L422.24 345.41L419.86 351.91L417.43 358.56L414.95 365.35L412.42 372.27L409.84 379.3L407.22 386.44L404.57 393.69L401.87 401.03L399.15 408.46L396.39 415.96L393.61 423.53L390.81 431.15L387.99 438.83L385.15 446.55L382.3 454.3L379.44 462.08L376.57 469.87L373.7 477.67L370.82 485.46L367.96 493.25L365.09 501.02L362.24 508.76L359.4 516.46L356.58 524.12L353.78 531.73L351 539.27L348.24 546.75L345.51 554.17L342.81 561.53L340.14 568.82L337.51 576.03L334.91 583.16L332.34 590.2L329.82 597.14L327.34 603.98L324.9 610.71L322.51 617.33L320.17 623.83L317.88 630.2L315.65 636.43L313.47 642.53L311.34 648.48L309.28 654.28L307.28 659.92L305.35 665.39L303.48 670.7L301.68 675.82L299.95 680.77L298.3 685.52L296.72 690.08L295.22 694.43L293.8 698.58L292.46 702.51L291.21 706.22L290.05 709.7L288.97 712.95L287.99 715.96L287.1 718.72L286.31 721.23L285.61 723.48L285.02 725.46L284.53 727.18L284.14 728.61L283.86 729.77L283.7 730.63L283.64 731.19L283.65 732.09L283.7 732.97L283.78 733.83L283.88 734.69L284.02 735.53L284.18 736.35L284.37 737.16L284.59 737.96L284.84 738.74L285.11 739.5L285.41 740.24L285.73 740.97L286.08 741.67L286.45 742.36L286.85 743.03L287.27 743.68L287.71 744.31L288.18 744.92L288.67 745.51L289.18 746.07L289.7 746.61L290.25 747.13L290.82 747.63L291.41 748.1L292.02 748.55L292.64 748.97L293.29 749.37L293.95 749.74L294.62 750.08L295.32 750.4L296.03 750.69L296.75 750.95L297.49 751.18L298.24 751.38L299 751.55L299.78 751.7L300.57 751.81L301.38 751.89L302.19 751.94L303.02 751.95L303.44 751.91L304 751.78L304.7 751.57L305.54 751.28L306.52 750.91L307.62 750.46L308.86 749.93L310.22 749.33L311.7 748.66L313.3 747.92L315.01 747.1L316.83 746.22L318.77 745.28L320.81 744.27L322.95 743.2L325.19 742.06L327.53 740.87L329.96 739.62L332.48 738.32L335.08 736.96L337.77 735.55L340.54 734.09L343.38 732.58L346.3 731.03L349.29 729.43L352.34 727.78L355.46 726.1L358.64 724.37L361.88 722.61L365.17 720.81L368.51 718.98L371.9 717.11L375.34 715.21L378.81 713.29L382.33 711.33L385.88 709.35L389.46 707.35L393.07 705.32L396.7 703.27L400.36 701.2L404.02 699.1L407.66 697.03L411.27 694.97L414.85 692.94L418.4 690.94L421.91 688.97L425.39 687.03L428.83 685.12L432.22 683.24L435.56 681.4L438.86 679.6L442.1 677.83L445.28 676.11L448.4 674.42L451.46 672.78L454.46 671.18L457.38 669.63L460.23 668.13L463.01 666.68L465.7 665.28L468.32 663.93L470.84 662.63L473.28 661.39L475.63 660.21L477.89 659.09L480.04 658.03L482.1 657.03L484.05 656.1L485.89 655.23L487.62 654.43L489.24 653.69L490.74 653.03L492.13 652.44L493.38 651.92L494.52 651.48L495.52 651.12L496.39 650.83L497.12 650.62L497.72 650.5L498.17 650.46L498.61 650.49L499.16 650.59L499.81 650.75L500.58 650.98L501.45 651.27L502.42 651.62L503.48 652.04L504.65 652.51L505.9 653.04L507.25 653.62L508.69 654.26L510.21 654.95L511.82 655.7L513.5 656.49L515.27 657.34L517.1 658.24L519.02 659.18L521 660.17L523.05 661.2L525.16 662.28L527.34 663.4L529.57 664.56L531.86 665.76L534.21 667L536.61 668.27L539.06 669.59L541.55 670.93L544.09 672.32L546.67 673.73L549.29 675.17L551.95 676.65L554.64 678.15L557.36 679.68L560.11 681.24L562.89 682.82L565.68 684.42L568.5 686.05L571.34 687.7L574.2 689.37L577.06 691.05L583.79 694.96L590.27 698.7L596.5 702.29L602.5 705.74L608.26 709.03L613.8 712.18L619.12 715.19L624.22 718.05L629.1 720.78L633.78 723.36L638.26 725.82L642.53 728.14L646.62 730.34L650.52 732.4L654.23 734.34L657.77 736.16L661.14 737.86L664.34 739.45L667.38 740.91L670.26 742.27L672.98 743.51L675.56 744.64L678 745.67L680.3 746.59L682.47 747.42L684.51 748.14L686.43 748.77L688.23 749.3L689.92 749.74L691.51 750.09L692.99 750.36L694.37 750.54L695.66 750.63L696.87 750.65L697.99 750.59L699.04 750.45L700.01 750.24L700.92 749.95L701.76 749.6L702.55 749.19L703.43 748.58L704.26 747.95L705.05 747.28L705.79 746.58L706.49 745.84L707.14 745.07L707.74 744.26L708.3 743.42L708.82 742.54L709.28 741.62L709.71 740.66L710.08 739.66L710.41 738.62L710.7 737.54L710.94 736.42L711.13 735.26L711.27 734.05L711.37 732.8L711.43 731.5L711.43 730.15L711.39 728.76L711.3 727.33L711.17 725.84L710.99 724.31L710.76 722.72L710.48 721.09L710.16 719.4L709.79 717.66L709.37 715.87L708.91 714.02L708.4 712.12L707.84 710.17L707.23 708.15L706.57 706.09L705.87 703.96L705.12 701.78L704.32 699.53L703.47 697.23L702.57 694.86L701.63 692.44L701.11 691.01L700.46 689.24L699.69 687.12L698.78 684.67L697.76 681.88L696.61 678.78L695.35 675.37L693.98 671.66L692.49 667.66L690.9 663.37L689.21 658.8L687.41 653.96L685.52 648.86L683.53 643.51L681.45 637.92L679.28 632.09L677.03 626.03L674.7 619.75L672.28 613.26L669.79 606.57L667.23 599.68L664.6 592.61L661.9 585.36L659.14 577.94L656.32 570.35L653.44 562.62L650.51 554.74L647.53 546.72L644.5 538.57L641.42 530.31L638.3 521.93L635.15 513.45L631.96 504.87L628.73 496.2L625.48 487.46L622.2 478.65L618.9 469.77L615.58 460.84L612.25 451.86L608.9 442.84L605.58 433.84L602.29 424.89L599.01 416L595.76 407.18L592.54 398.44L589.35 389.78L586.19 381.22L583.07 372.76L579.99 364.41L576.95 356.18L573.95 348.08L571 340.1L568.11 332.27L565.26 324.59L562.48 317.06L559.75 309.7L557.08 302.51L554.48 295.5L551.95 288.69L549.5 282.06L547.11 275.64L544.8 269.44L542.58 263.45L540.43 257.69L538.38 252.17L536.41 246.89L534.53 241.86L532.75 237.09L531.07 232.58L529.48 228.36L528.01 224.41L526.63 220.76L525.37 217.4L524.22 214.35L523.19 211.62L522.27 209.21L521.48 207.13L520.81 205.38L520.27 203.98L519.85 202.94L519.19 201.31L518.52 199.74L517.83 198.23L517.14 196.78L516.44 195.39L515.72 194.07L515 192.8L514.27 191.59L513.52 190.45L512.77 189.37L512 188.34L511.23 187.38L510.45 186.48L509.65 185.64L508.85 184.86L508.04 184.15L507.21 183.49L506.38 182.89L505.54 182.36L504.69 181.89L503.83 181.48L502.95 181.13L502.07 180.84L501.19 180.62L500.29 180.45L499.38 180.35L498.46 180.31L497.53 180.33L496.6 180.41Z" id="a7L3jAoW3"></path><path d="M812.47 525.8C812.47 740.14 682.09 914.15 521.5 914.15C360.92 914.15 230.54 740.14 230.54 525.8C230.54 311.46 360.92 137.44 521.5 137.44C682.09 137.44 812.47 311.46 812.47 525.8Z" id="b8rkV10sJ4"></path><path d="M522.81 47.48L539.05 48.69L555.17 50.45L571.14 52.77L586.97 55.64L602.63 59.04L618.12 62.98L633.42 67.43L648.52 72.41L663.41 77.88L678.07 83.86L692.49 90.33L706.65 97.28L720.55 104.71L734.18 112.61L747.51 120.97L760.54 129.78L773.26 139.03L785.65 148.73L797.69 158.85L809.38 169.4L820.7 180.36L831.65 191.73L842.2 203.5L852.35 215.66L862.07 228.2L871.37 241.12L880.22 254.41L888.62 268.06L896.55 282.07L904 296.41L910.95 311.1L917.39 326.12L923.32 341.46L928.71 357.11L930.02 361.19L931.29 365.16L932.5 369.03L933.66 372.8L934.77 376.5L935.83 380.11L936.84 383.66L937.81 387.13L938.72 390.56L939.6 393.92L940.42 397.25L941.21 400.54L941.95 403.79L942.65 407.03L943.31 410.24L943.93 413.45L944.52 416.65L945.06 419.85L945.57 423.07L946.04 426.3L946.48 429.55L946.89 432.83L947.26 436.15L947.6 439.51L947.91 442.93L948.2 446.4L948.45 449.93L948.68 453.54L948.88 457.22L949.05 460.99L949.2 464.84L949.33 468.8L949.43 472.86L949.51 477.03L949.58 481.31L949.62 485.73L949.64 490.27L949.65 494.95L949.64 499.78L949.62 504.76L949.57 510.05L949.49 515.25L949.38 520.36L949.24 525.38L949.06 530.32L948.85 535.18L948.6 539.97L948.31 544.68L947.99 549.32L947.63 553.9L947.23 558.42L946.79 562.89L946.31 567.3L945.79 571.67L945.22 575.99L944.61 580.28L943.96 584.52L943.26 588.74L942.51 592.92L941.72 597.09L940.88 601.23L939.99 605.36L939.05 609.47L938.06 613.58L937.02 617.68L935.93 621.78L934.78 625.89L933.58 630.01L932.33 634.13L931.01 638.27L929.65 642.43L928.22 646.62L926.73 650.83L925.19 655.07L923.59 659.35L921.92 663.67L920.19 668.03L918.4 672.44L916.55 676.9L914.63 681.42L912.16 687.02L909.58 692.64L906.87 698.26L904.04 703.89L901.1 709.51L898.05 715.13L894.88 720.74L891.61 726.34L888.24 731.93L884.76 737.5L881.19 743.05L877.52 748.58L873.75 754.08L869.9 759.54L865.95 764.98L861.93 770.37L857.81 775.73L853.63 781.04L849.36 786.3L845.02 791.51L840.61 796.67L836.13 801.76L831.58 806.8L826.97 811.78L822.3 816.68L817.58 821.52L812.8 826.28L807.96 830.96L803.08 835.56L798.15 840.07L793.18 844.5L788.17 848.84L783.12 853.08L778.03 857.22L772.91 861.27L767.76 865.2L762.59 869.03L757.39 872.75L752.17 876.35L746.93 879.84L728.27 891.36L709.32 901.87L690.09 911.38L670.64 919.9L650.97 927.44L631.13 934L611.15 939.6L591.05 944.26L570.87 947.97L550.63 950.75L530.37 952.61L510.12 953.56L489.91 953.61L469.77 952.76L449.72 951.04L429.81 948.45L410.05 945.01L390.49 940.71L371.15 935.57L352.06 929.6L333.25 922.82L314.75 915.23L296.6 906.84L278.83 897.66L261.45 887.7L244.51 876.98L228.04 865.5L212.07 853.27L196.62 840.3L181.72 826.61L167.42 812.2L153.73 797.09L140.7 781.28L128.34 764.78L116.69 747.61L105.78 729.77L95.64 711.28L86.31 692.14L77.8 672.37L70.16 651.97L68.74 647.85L67.38 643.81L66.07 639.84L64.81 635.93L63.6 632.08L62.44 628.3L61.33 624.56L60.26 620.86L59.24 617.21L58.26 613.6L57.33 610.01L56.45 606.45L55.61 602.91L54.81 599.38L54.05 595.87L53.33 592.36L52.65 588.85L52.01 585.33L51.41 581.8L50.85 578.26L50.32 574.7L49.83 571.11L49.38 567.48L48.96 563.83L48.57 560.13L48.22 556.39L47.9 552.59L47.61 548.74L47.35 544.82L47.12 540.84L46.91 536.79L46.74 532.66L46.59 528.44L46.47 524.14L46.38 519.75L46.31 515.26L46.26 510.67L46.24 505.97L46.24 501.15L46.26 496.22L46.3 491.23L46.37 486.36L46.45 481.62L46.56 476.98L46.69 472.46L46.84 468.04L47.02 463.71L47.23 459.47L47.46 455.32L47.73 451.25L48.03 447.25L48.35 443.32L48.71 439.45L49.11 435.64L49.53 431.87L50 428.15L50.5 424.47L51.04 420.82L51.62 417.2L52.24 413.6L52.9 410.01L53.6 406.44L54.35 402.87L55.14 399.29L55.98 395.71L56.87 392.11L57.8 388.49L58.78 384.85L59.82 381.18L60.9 377.47L62.04 373.72L63.24 369.92L64.48 366.06L65.79 362.14L67.15 358.16L68.57 354.11L70.05 349.98L71.59 345.76L73.19 341.46L74.85 337.06L79.17 326.05L83.78 315.18L88.69 304.46L93.89 293.88L99.37 283.45L105.13 273.19L111.16 263.08L117.46 253.14L124.02 243.37L130.83 233.78L137.88 224.37L145.18 215.15L152.72 206.12L160.48 197.28L168.47 188.65L176.68 180.22L185.1 172L193.72 164L202.54 156.22L211.56 148.66L220.77 141.34L230.16 134.25L239.72 127.4L249.45 120.8L259.35 114.44L269.41 108.34L279.62 102.5L289.97 96.93L300.47 91.62L311.1 86.59L321.86 81.84L332.74 77.37L343.74 73.19L354.84 69.31L366.06 65.72L377.37 62.44L388.77 59.46L400.26 56.8L411.83 54.46L423.48 52.44L440.2 50.12L456.87 48.41L473.48 47.3L490.01 46.78L506.46 46.84L522.81 47.48ZM496.7 204.42L495.83 204.56L494.94 204.75L494.05 205L493.15 205.3L492.25 205.66L491.33 206.08L490.41 206.56L489.48 207.1L488.54 207.69L487.59 208.34L486.63 209.04L486.32 209.33L485.97 209.74L485.57 210.28L485.13 210.94L484.66 211.71L484.14 212.59L483.58 213.59L482.99 214.7L482.37 215.91L481.7 217.23L481.01 218.65L480.28 220.17L479.53 221.78L478.74 223.48L477.92 225.28L477.08 227.16L476.21 229.12L475.32 231.17L474.4 233.3L473.46 235.5L472.49 237.78L471.51 240.12L470.51 242.54L469.49 245.02L468.45 247.57L467.4 250.17L466.33 252.83L465.25 255.55L464.15 258.31L463.05 261.13L461.93 263.99L460.81 266.9L459.68 269.85L458.54 272.83L457.4 275.86L456.25 278.91L455.1 281.99L453.95 285.11L452.79 288.24L451.64 291.4L450.47 294.69L449.21 298.24L447.86 302.01L446.42 306.02L444.9 310.26L443.3 314.7L441.62 319.35L439.86 324.21L438.04 329.25L436.14 334.47L434.18 339.87L432.15 345.43L430.07 351.16L427.92 357.03L425.73 363.05L423.48 369.2L421.18 375.48L418.84 381.87L416.46 388.38L414.04 394.99L411.58 401.69L409.09 408.48L406.57 415.34L404.02 422.28L401.45 429.28L398.86 436.34L396.24 443.44L393.62 450.58L390.98 457.75L388.33 464.94L385.68 472.15L383.03 479.36L380.37 486.57L377.72 493.77L375.07 500.96L372.43 508.12L369.81 515.24L367.2 522.32L364.6 529.36L362.03 536.33L359.48 543.25L356.96 550.12L354.46 556.93L351.99 563.67L349.55 570.34L347.15 576.93L344.78 583.44L342.44 589.86L340.15 596.19L337.9 602.41L335.69 608.54L333.52 614.54L331.4 620.44L329.33 626.2L327.32 631.84L325.35 637.35L323.45 642.71L321.6 647.92L319.81 652.99L318.08 657.89L316.42 662.64L314.82 667.21L313.29 671.6L311.83 675.82L310.44 679.85L309.13 683.68L307.89 687.32L306.74 690.75L305.66 693.97L304.66 696.97L303.76 699.75L302.93 702.31L302.2 704.63L301.56 706.71L301.01 708.55L300.55 710.13L300.2 711.46L299.94 712.53L299.78 713.32L299.73 713.85L299.75 714.67L299.79 715.49L299.86 716.29L299.96 717.08L300.08 717.86L300.23 718.62L300.41 719.37L300.61 720.1L300.84 720.82L301.09 721.53L301.37 722.22L301.67 722.89L301.99 723.54L302.33 724.18L302.7 724.8L303.09 725.4L303.5 725.98L303.93 726.54L304.38 727.09L304.85 727.61L305.34 728.11L305.85 728.59L306.38 729.05L306.92 729.49L307.48 729.9L308.06 730.29L308.66 730.66L309.27 731L309.89 731.32L310.53 731.61L311.19 731.88L311.86 732.12L312.54 732.33L313.23 732.52L313.94 732.68L314.66 732.81L315.39 732.91L316.14 732.99L316.89 733.03L317.65 733.05L318.04 733.01L318.56 732.89L319.21 732.7L319.99 732.43L320.89 732.08L321.91 731.67L323.06 731.18L324.31 730.63L325.68 730L327.16 729.32L328.75 728.56L330.43 727.75L332.22 726.87L334.11 725.94L336.09 724.95L338.16 723.9L340.32 722.8L342.57 721.64L344.9 720.44L347.31 719.18L349.8 717.88L352.36 716.53L354.99 715.13L357.69 713.69L360.45 712.21L363.28 710.69L366.16 709.14L369.1 707.54L372.1 705.91L375.14 704.25L378.23 702.55L381.37 700.82L384.54 699.07L387.76 697.29L391.01 695.48L394.29 693.65L397.61 691.79L400.94 689.92L404.31 688.02L407.69 686.11L411.07 684.17L414.44 682.25L417.77 680.35L421.09 678.47L424.37 676.62L427.62 674.8L430.84 673L434.02 671.23L437.15 669.5L440.25 667.8L443.29 666.13L446.29 664.49L449.23 662.9L452.12 661.34L454.95 659.82L457.72 658.34L460.43 656.91L463.06 655.52L465.63 654.18L468.12 652.88L470.54 651.63L472.88 650.44L475.14 649.29L477.31 648.2L479.39 647.16L481.39 646.18L483.29 645.26L485.09 644.39L486.8 643.59L488.4 642.85L489.9 642.17L491.28 641.55L492.56 641.01L493.73 640.53L494.77 640.12L495.7 639.78L496.51 639.52L497.18 639.33L497.73 639.21L498.15 639.17L498.56 639.2L499.07 639.3L499.67 639.45L500.38 639.66L501.18 639.93L502.08 640.25L503.07 640.63L504.14 641.07L505.31 641.56L506.55 642.1L507.88 642.69L509.29 643.33L510.77 644.02L512.33 644.76L513.96 645.54L515.67 646.37L517.43 647.24L519.27 648.15L521.16 649.11L523.12 650.11L525.13 651.14L527.2 652.22L529.32 653.33L531.49 654.47L533.71 655.65L535.97 656.87L538.28 658.11L540.63 659.39L543.02 660.7L545.44 662.03L547.9 663.4L550.38 664.79L552.9 666.2L555.44 667.64L558.01 669.11L560.6 670.59L563.21 672.1L565.83 673.62L568.47 675.16L571.12 676.72L577.34 680.33L583.33 683.8L589.1 687.12L594.65 690.3L599.98 693.35L605.1 696.26L610.02 699.04L614.73 701.69L619.25 704.21L623.58 706.61L627.72 708.88L631.68 711.03L635.46 713.05L639.06 714.97L642.5 716.76L645.77 718.45L648.89 720.02L651.85 721.48L654.65 722.84L657.32 724.09L659.84 725.24L662.23 726.29L664.48 727.24L666.61 728.09L668.62 728.85L670.5 729.52L672.28 730.1L673.95 730.6L675.51 731L676.97 731.33L678.34 731.57L679.62 731.74L680.82 731.83L681.93 731.84L682.97 731.78L683.94 731.66L684.84 731.46L685.68 731.2L686.46 730.88L687.19 730.49L688 729.93L688.77 729.34L689.5 728.72L690.18 728.07L690.83 727.39L691.43 726.68L691.99 725.93L692.51 725.15L692.98 724.34L693.41 723.49L693.81 722.6L694.15 721.68L694.46 720.72L694.72 719.72L694.94 718.68L695.12 717.61L695.26 716.49L695.35 715.33L695.4 714.13L695.4 712.89L695.36 711.6L695.28 710.27L695.16 708.9L694.99 707.48L694.78 706.01L694.53 704.5L694.23 702.94L693.88 701.33L693.5 699.67L693.07 697.97L692.59 696.21L692.08 694.4L691.51 692.54L690.91 690.63L690.26 688.66L689.56 686.64L688.82 684.56L688.04 682.43L687.21 680.25L686.33 678L685.86 676.69L685.26 675.04L684.54 673.08L683.7 670.81L682.75 668.24L681.69 665.37L680.53 662.22L679.26 658.79L677.88 655.08L676.41 651.11L674.85 646.89L673.18 642.41L671.43 637.7L669.59 632.75L667.67 627.58L665.67 622.18L663.58 616.58L661.43 610.77L659.19 604.77L656.89 598.58L654.52 592.21L652.09 585.67L649.59 578.96L647.04 572.1L644.43 565.09L641.77 557.93L639.06 550.64L636.3 543.23L633.49 535.69L630.65 528.05L627.76 520.3L624.85 512.45L621.9 504.52L618.91 496.5L615.91 488.42L612.87 480.26L609.82 472.05L606.75 463.79L603.66 455.49L600.56 447.15L597.5 438.82L594.45 430.54L591.42 422.32L588.42 414.16L585.44 406.08L582.49 398.07L579.57 390.16L576.68 382.33L573.83 374.61L571.01 367L568.24 359.5L565.52 352.12L562.84 344.88L560.21 337.77L557.63 330.81L555.11 324L552.64 317.36L550.24 310.87L547.9 304.57L545.63 298.44L543.42 292.5L541.29 286.76L539.23 281.23L537.24 275.9L535.34 270.79L533.52 265.91L531.78 261.25L530.14 256.84L528.58 252.68L527.12 248.77L525.75 245.12L524.48 241.74L523.31 238.64L522.25 235.82L521.29 233.29L520.45 231.06L519.71 229.13L519.09 227.52L518.59 226.23L518.21 225.26L517.6 223.75L516.97 222.3L516.34 220.9L515.7 219.56L515.05 218.28L514.39 217.05L513.72 215.88L513.04 214.77L512.35 213.71L511.65 212.7L510.95 211.76L510.23 210.87L509.51 210.04L508.77 209.26L508.03 208.54L507.28 207.88L506.52 207.27L505.75 206.72L504.97 206.23L504.18 205.79L503.38 205.41L502.58 205.09L501.76 204.82L500.94 204.61L500.11 204.46L499.27 204.37L498.42 204.33L497.57 204.35L496.7 204.42Z" id="a6pUehIJCE"></path><path d="" id="a2CeJIrmJ"></path><path d="M620.82 257.16C640.93 257.16 657.23 273.47 657.23 293.58C657.23 300.86 657.23 286.29 657.23 293.58C657.23 313.69 640.93 329.99 620.82 329.99C570.54 329.99 456.1 329.99 405.82 329.99C385.71 329.99 369.4 313.69 369.4 293.58C369.4 286.29 369.4 300.86 369.4 293.58C369.4 273.47 385.71 257.16 405.82 257.16C456.1 257.16 570.54 257.16 620.82 257.16Z" id="a7dNZuCAN"></path><path d="M408.38 257.16C430.68 257.16 448.75 275.24 448.75 297.54C448.75 391.55 448.75 633.2 448.75 727.21C448.75 749.5 430.68 767.58 408.38 767.58C400.3 767.58 416.45 767.58 408.38 767.58C386.08 767.58 368 749.5 368 727.21C368 633.2 368 391.55 368 297.54C368 275.24 386.08 257.16 408.38 257.16C416.45 257.16 400.3 257.16 408.38 257.16Z" id="dm9DRRq11"></path><path d="M605.44 485.96C625.03 485.96 640.91 501.83 640.91 521.42C640.91 528.51 640.91 514.33 640.91 521.42C640.91 541 625.03 556.88 605.44 556.88C558.71 556.88 453.96 556.88 407.23 556.88C387.64 556.88 371.77 541 371.77 521.42C371.77 514.33 371.77 528.51 371.77 521.42C371.77 501.83 387.64 485.96 407.23 485.96C453.96 485.96 558.71 485.96 605.44 485.96Z" id="a6MpRMDwU"></path><path d="M609.79 506.88C615 506.88 619.23 511.11 619.23 516.32C619.23 520.25 619.23 522.59 619.23 526.52C619.23 531.73 615 535.96 609.79 535.96C571.27 535.96 465.16 535.96 426.64 535.96C421.43 535.96 417.21 531.73 417.21 526.52C417.21 522.59 417.21 520.25 417.21 516.32C417.21 511.11 421.43 506.88 426.64 506.88C465.16 506.88 571.27 506.88 609.79 506.88Z" id="ixDHAnqqY"></path><path d="M415.74 286.49C420.34 286.49 424.07 290.22 424.07 294.81C424.07 384.26 424.07 643.72 424.07 733.02C424.07 738 420.03 742.04 415.05 742.04C410.58 742.04 406.82 742.04 402.51 742.04C397.09 742.04 392.69 737.64 392.69 732.22C392.69 643.07 392.69 384.44 392.69 295.04C392.69 290.32 396.52 286.49 401.25 286.49C405.81 286.49 411.13 286.49 415.74 286.49Z" id="dLWuoTzM"></path><path d="M624.55 278.23C631 278.23 636.22 283.46 636.22 289.91C636.22 294.25 636.22 295.61 636.22 299.95C636.22 306.4 631 311.62 624.55 311.62C578.18 311.62 450.74 311.62 404.37 311.62C397.92 311.62 392.69 306.4 392.69 299.95C392.69 295.61 392.69 294.25 392.69 289.91C392.69 283.46 397.92 278.23 404.37 278.23C450.74 278.23 578.18 278.23 624.55 278.23Z" id="aawVRHXYJ"></path></defs><g><g><g><use xlink:href="#a7L3jAoW3" opacity="1" fill="#434c53" fill-opacity="1"></use><g><use xlink:href="#a7L3jAoW3" opacity="1" fill-opacity="0" stroke="#000000" stroke-width="1" stroke-opacity="0"></use></g></g><g><use xlink:href="#b8rkV10sJ4" opacity="1" fill="#4e5a62" fill-opacity="1"></use></g><g><use xlink:href="#a6pUehIJCE" opacity="1" fill="#4e5a62" fill-opacity="1"></use><g><use xlink:href="#a6pUehIJCE" opacity="1" fill-opacity="0" stroke="#000000" stroke-width="1" stroke-opacity="0"></use></g></g><g><g><use xlink:href="#a2CeJIrmJ" opacity="1" fill-opacity="0" stroke="#000000" stroke-width="1" stroke-opacity="1"></use></g></g><g><g><use xlink:href="#a7dNZuCAN" opacity="1" fill="#ffffff" fill-opacity="1"></use></g><g><use xlink:href="#dm9DRRq11" opacity="1" fill="#ffffff" fill-opacity="1"></use></g><g><use xlink:href="#a6MpRMDwU" opacity="1" fill="#ffffff" fill-opacity="1"></use></g><g><use xlink:href="#ixDHAnqqY" opacity="1" fill="#4e5a62" fill-opacity="1"></use></g><g><use xlink:href="#dLWuoTzM" opacity="1" fill="#4e5a62" fill-opacity="1"></use></g><g><use xlink:href="#aawVRHXYJ" opacity="1" fill="#4e5a62" fill-opacity="1"></use></g></g></g></g></svg>